Newsreader-Bold.ufo
<glyph name="less" format="2">
  <advance width="1000.0"/>
  <unicode hex="003C"/>
  <outline>
    <contour>
      <point x="135.704" y="396.544" type="line"/>
      <point x="942.704" y="757.768" type="line"/>
      <point x="942.704" y="896.536" type="line"/>
      <point x="42.704" y="485.312" type="line"/>
      <point x="42.704" y="386.688" type="line"/>
      <point x="942.704" y="-24.536" type="line"/>
      <point x="942.704" y="114.232" type="line"/>
      <point x="135.704" y="475.456" type="line"/>
    </contour>
  </outline>
</glyph>
<glyph name="question" format="2">
  <advance width="930.808"/>
  <unicode hex="003F"/>
  <outline>
    <contour>
      <point x="314.104" y="1366.48" type="curve" smooth="yes"/>
      <point x="128.632" y="1366.48"/>
      <point x="51.872" y="1309.872"/>
      <point x="51.872" y="1235.04" type="curve" smooth="yes"/>
      <point x="51.872" y="1167.896"/>
      <point x="101.944" y="1117.528"/>
      <point x="165.072" y="1117.528" type="curve" smooth="yes"/>
      <point x="291.37775609756096" y="1117.528"/>
      <point x="356.7090731707317" y="1237.856"/>
      <point x="485.256" y="1237.856" type="curve" smooth="yes"/>
      <point x="602.8" y="1237.856"/>
      <point x="669.456" y="1171.608"/>
      <point x="669.456" y="1055.392" type="curve" smooth="yes"/>
      <point x="669.456" y="919.96"/>
      <point x="559.952" y="835.384"/>
      <point x="286.008" y="843.424" type="curve"/>
      <point x="379.744" y="464.688" type="line"/>
      <point x="435.056" y="464.688" type="line"/>
      <point x="460.976" y="773.992" type="line"/>
      <point x="389.552" y="616.928" type="line"/>
      <point x="729.312" y="612.704"/>
      <point x="848.16" y="731.856"/>
      <point x="848.16" y="939.648" type="curve" smooth="yes"/>
      <point x="848.16" y="1199.04"/>
      <point x="656.192" y="1366.48"/>
    </contour>
    <contour>
      <point x="412.04" y="311.48" type="curve" smooth="yes"/>
      <point x="315.472" y="311.48"/>
      <point x="245.68" y="239.04000000000002"/>
      <point x="245.68" y="149.064" type="curve" smooth="yes"/>
      <point x="245.68" y="58.44"/>
      <point x="315.472" y="-14.0"/>
      <point x="412.04" y="-14.0" type="curve" smooth="yes"/>
      <point x="508.608" y="-14.0"/>
      <point x="578.4" y="58.44"/>
      <point x="578.4" y="149.064" type="curve" smooth="yes"/>
      <point x="578.4" y="239.04000000000002"/>
      <point x="508.608" y="311.48"/>
    </contour>
  </outline>
</glyph>
<glyph name="at" format="2">
  <advance width="1768.96"/>
  <unicode hex="0040"/>
  <outline>
    <contour>
      <point x="1221.24" y="181.152" type="curve" smooth="yes"/>
      <point x="1519.936" y="181.152"/>
      <point x="1733.864" y="416.616"/>
      <point x="1733.864" y="749.968" type="curve" smooth="yes"/>
      <point x="1733.864" y="1128.744"/>
      <point x="1460.088" y="1387.248"/>
      <point x="994.424" y="1387.248" type="curve" smooth="yes"/>
      <point x="451.184" y="1387.248"/>
      <point x="64.8" y="978.064"/>
      <point x="64.8" y="479.504" type="curve" smooth="yes"/>
      <point x="64.8" y="53.048"/>
      <point x="338.01599999999996" y="-262.48"/>
      <point x="891.056" y="-262.48" type="curve" smooth="yes"/>
      <point x="1147.24" y="-262.48"/>
      <point x="1360.904" y="-192.128"/>
      <point x="1539.144" y="-73.072" type="curve"/>
      <point x="1492.608" y="8.424" type="line"/>
      <point x="1304.648" y="-109.44800000000001"/>
      <point x="1106.536" y="-152.208"/>
      <point x="920.704" y="-152.208" type="curve" smooth="yes"/>
      <point x="444.048" y="-152.208"/>
      <point x="233.944" y="123.936"/>
      <point x="233.944" y="483.488" type="curve" smooth="yes"/>
      <point x="233.944" y="967.84"/>
      <point x="543.344" y="1291.344"/>
      <point x="995.2" y="1291.344" type="curve" smooth="yes"/>
      <point x="1367.512" y="1291.344"/>
      <point x="1581.144" y="1054.432"/>
      <point x="1581.144" y="725.856" type="curve" smooth="yes"/>
      <point x="1581.144" y="452.088"/>
      <point x="1425.848" y="278.016"/>
      <point x="1295.304" y="278.016" type="curve" smooth="yes"/>
      <point x="1251.448" y="278.016"/>
      <point x="1220.944" y="300.352"/>
      <point x="1220.944" y="365.08" type="curve" smooth="yes"/>
      <point x="1220.944" y="391.656"/>
      <point x="1226.648" y="424.936"/>
      <point x="1242.632" y="478.832" type="curve" smooth="yes"/>
      <point x="1389.224" y="987.984" type="line"/>
      <point x="1173.536" y="987.984" type="line"/>
      <point x="1108.656" y="895.32" type="line"/>
      <point x="1008.512" y="622.176" type="line" smooth="yes"/>
      <point x="949.696" y="459.112"/>
      <point x="837.256" y="357.248"/>
      <point x="779.288" y="357.248" type="curve" smooth="yes"/>
      <point x="742.36" y="357.248"/>
      <point x="723.672" y="375.23199999999997"/>
      <point x="723.672" y="423.048" type="curve" smooth="yes"/>
      <point x="723.672" y="577.576"/>
      <point x="879.92" y="890.64"/>
      <point x="1020.136" y="890.64" type="curve" smooth="yes"/>
      <point x="1074.56" y="890.64"/>
      <point x="1092.488" y="859.048"/>
      <point x="1106.08" y="823.864" type="curve"/>
      <point x="1155.448" y="896.248" type="line"/>
      <point x="1096.952" y="973.296"/>
      <point x="1038.808" y="1003.944"/>
      <point x="952.608" y="1003.944" type="curve" smooth="yes"/>
      <point x="673.4" y="1003.944"/>
      <point x="449.4" y="636.4"/>
      <point x="449.4" y="387.072" type="curve" smooth="yes"/>
      <point x="449.4" y="267.144"/>
      <point x="510.032" y="186.984"/>
      <point x="643.84" y="186.984" type="curve" smooth="yes"/>
      <point x="761.224" y="186.984"/>
      <point x="873.8" y="251.504"/>
      <point x="1052.04" y="568.2" type="curve"/>
      <point x="1024.168" y="568.2" type="line"/>
      <point x="992.264" y="456.952" type="line" smooth="yes"/>
      <point x="982.56" y="423.136"/>
      <point x="980.152" y="391.024"/>
      <point x="980.152" y="362.616" type="curve" smooth="yes"/>
      <point x="980.152" y="229.784"/>
      <point x="1077.224" y="181.152"/>
    </contour>
  </outline>
</glyph>
<glyph name="I" format="2">
  <advance width="735.424"/>
  <unicode hex="0049"/>
  <anchor x="367.712" y="1340.0" name="UCtop"/>
  <anchor x="554.192" y="0.0" name="right"/>
  <anchor x="367.712" y="0.0" name="bottom"/>
  <outline>
    <contour>
      <point x="667.272" y="43.536" type="line"/>
      <point x="522.232" y="102.016" type="line"/>
      <point x="522.232" y="1237.984" type="line"/>
      <point x="667.272" y="1296.464" type="line"/>
      <point x="667.272" y="1340.0" type="line"/>
      <point x="68.152" y="1340.0" type="line"/>
      <point x="68.152" y="1296.464" type="line"/>
      <point x="213.192" y="1237.984" type="line"/>
      <point x="213.192" y="102.016" type="line"/>
      <point x="68.152" y="43.536" type="line"/>
      <point x="68.152" y="0.0" type="line"/>
      <point x="667.272" y="0.0" type="line"/>
    </contour>
  </outline>
</glyph>
<glyph name="o" format="2">
  <advance width="1052.416"/>
  <unicode hex="006F"/>
  <anchor x="526.384" y="864.96" name="top"/>
  <anchor x="526.384" y="0.0" name="bottom"/>
  <anchor x="691.36" y="864.96" name="horn"/>
  <anchor x="743.16" y="0.0" name="right"/>
  <outline>
    <contour>
      <point x="532.624" y="74.49600000000001" type="curve" smooth="yes"/>
      <point x="413.744" y="74.49600000000001"/>
      <point x="349.512" y="213.144"/>
      <point x="349.512" y="476.568" type="curve" smooth="yes"/>
      <point x="349.512" y="709.384"/>
      <point x="419.688" y="790.464"/>
      <point x="519.792" y="790.464" type="curve" smooth="yes"/>
      <point x="638.672" y="790.464"/>
      <point x="702.904" y="651.816"/>
      <point x="702.904" y="388.392" type="curve" smooth="yes"/>
      <point x="702.904" y="155.576"/>
      <point x="632.728" y="74.49600000000001"/>
    </contour>
    <contour>
      <point x="518.848" y="-26.48" type="curve" smooth="yes"/>
      <point x="799.248" y="-26.48"/>
      <point x="994.912" y="170.704"/>
      <point x="994.912" y="445.72" type="curve" smooth="yes"/>
      <point x="994.912" y="710.496"/>
      <point x="820.264" y="891.44"/>
      <point x="533.568" y="891.44" type="curve" smooth="yes"/>
      <point x="253.168" y="891.44"/>
      <point x="57.504" y="694.256"/>
      <point x="57.504" y="419.24" type="curve" smooth="yes"/>
      <point x="57.504" y="154.464"/>
      <point x="232.152" y="-26.48"/>
    </contour>
  </outline>
</glyph>
<glyph name="q" format="2">
  <advance width="1106.856"/>
  <unicode hex="0071"/>
  <anchor x="570.88" y="864.96" name="top"/>
  <anchor x="843.44" y="-503.52" name="bottom"/>
  <outline>
    <contour>
      <point x="348.68" y="454.624" type="curve" smooth="yes"/>
      <point x="348.68" y="687.232"/>
      <point x="423.056" y="789.648"/>
      <point x="544.104" y="789.648" type="curve" smooth="yes"/>
      <point x="648.096" y="789.648"/>
      <point x="706.4" y="710.184"/>
      <point x="706.4" y="604.424" type="curve" smooth="yes"/>
      <point x="706.4" y="-405.56" type="line"/>
      <point x="562.968" y="-463.28" type="line"/>
      <point x="562.968" y="-503.52" type="line"/>
      <point x="1105.488" y="-503.52" type="line"/>
      <point x="1105.488" y="-463.28" type="line"/>
      <point x="983.296" y="-410.744" type="line"/>
      <point x="983.296" y="661.256" type="line"/>
      <point x="1013.72" y="870.256" type="line"/>
      <point x="976.5360000000001" y="890.032" type="line"/>
      <point x="793.616" y="815.736" type="line"/>
      <point x="897.968" y="814.44" type="line"/>
      <point x="769.12" y="869.44"/>
      <point x="678.5840000000001" y="891.44"/>
      <point x="572.848" y="891.44" type="curve" smooth="yes"/>
      <point x="290.016" y="891.44"/>
      <point x="59.152" y="705.808"/>
      <point x="59.152" y="388.48" type="curve" smooth="yes"/>
      <point x="59.152" y="143.704"/>
      <point x="189.264" y="-26.48"/>
      <point x="435.728" y="-26.48" type="curve" smooth="yes"/>
      <point x="521.472" y="-26.48"/>
      <point x="617.032" y="7.3919999999999995"/>
      <point x="757.144" y="95.688" type="curve"/>
      <point x="757.144" y="185.48" type="line"/>
      <point x="700.528" y="145.216"/>
      <point x="629.096" y="128.176"/>
      <point x="560.64" y="128.176" type="curve" smooth="yes"/>
      <point x="432.224" y="128.176"/>
      <point x="348.68" y="233.976"/>
    </contour>
  </outline>
</glyph>
<glyph name="r" format="2">
  <advance width="850.904"/>
  <unicode hex="0072"/>
  <anchor x="430.512" y="864.96" name="top"/>
  <anchor x="307.4" y="0.0" name="bottom"/>
  <outline>
    <contour>
      <point x="720.944" y="881.2" type="curve" smooth="yes"/>
      <point x="624.136" y="881.2"/>
      <point x="513.896" y="810.296"/>
      <point x="374.392" y="659.304" type="curve"/>
      <point x="397.688" y="607.456" type="line"/>
      <point x="437.336" y="641.4"/>
      <point x="482.008" y="657.864"/>
      <point x="527.36" y="657.864" type="curve" smooth="yes"/>
      <point x="591.84" y="657.864"/>
      <point x="616.344" y="622.92"/>
      <point x="697.928" y="622.92" type="curve" smooth="yes"/>
      <point x="768.52" y="622.92"/>
      <point x="838.6800000000001" y="668.104"/>
      <point x="838.6800000000001" y="761.8" type="curve" smooth="yes"/>
      <point x="838.6800000000001" y="826.76"/>
      <point x="805.792" y="881.2"/>
    </contour>
    <contour>
      <point x="445.848" y="689.0" type="line"/>
      <point x="419.648" y="891.44" type="line"/>
      <point x="386.98400000000004" y="891.44" type="line"/>
      <point x="38.448" y="775.184" type="line"/>
      <point x="38.448" y="738.52" type="line"/>
      <point x="94.952" y="716.112"/>
      <point x="136.472" y="691.28"/>
      <point x="168.952" y="647.432" type="curve"/>
      <point x="168.952" y="92.776" type="line"/>
      <point x="46.76" y="40.24" type="line"/>
      <point x="46.76" y="0.0" type="line"/>
      <point x="584.0" y="0.0" type="line"/>
      <point x="584.0" y="40.24" type="line"/>
      <point x="445.848" y="97.96000000000001" type="line"/>
    </contour>
  </outline>
</glyph>
<glyph name="x" format="2">
  <advance width="1031.096"/>
  <unicode hex="0078"/>
  <anchor x="525.344" y="864.96" name="top"/>
  <anchor x="525.344" y="0.0" name="bottom"/>
  <outline>
    <contour>
      <point x="943.288" y="91.296" type="line"/>
      <point x="617.0" y="513.5840000000001" type="line"/>
      <point x="593.296" y="540.5840000000001" type="line"/>
      <point x="413.496" y="783.848" type="line"/>
      <point x="517.056" y="821.312" type="line"/>
      <point x="517.056" y="864.96" type="line"/>
      <point x="9.375999999999998" y="864.96" type="line"/>
      <point x="9.375999999999998" y="821.312" type="line"/>
      <point x="108.752" y="773.664" type="line"/>
      <point x="425.76" y="367.896" type="line"/>
      <point x="444.872" y="342.248" type="line"/>
      <point x="638.544" y="81.112" type="line"/>
      <point x="541.464" y="43.648" type="line"/>
      <point x="541.464" y="0.0" type="line"/>
      <point x="1042.664" y="0.0" type="line"/>
      <point x="1042.664" y="43.648" type="line"/>
    </contour>
    <contour>
      <point x="520.344" y="418.032" type="line"/>
      <point x="576.432" y="429.296" type="line"/>
      <point x="883.688" y="781.72" type="line"/>
      <point x="990.688" y="821.312" type="line"/>
      <point x="990.688" y="864.96" type="line"/>
      <point x="640.5840000000001" y="864.96" type="line"/>
      <point x="640.5840000000001" y="821.312" type="line"/>
      <point x="752.048" y="783.664" type="line"/>
      <point x="506.272" y="477.168" type="line"/>
      <point x="451.776" y="465.904" type="line"/>
      <point x="116.336" y="83.24" type="line"/>
      <point x="5.800000000000001" y="43.648" type="line"/>
      <point x="5.800000000000001" y="0.0" type="line"/>
      <point x="363.79200000000003" y="0.0" type="line"/>
      <point x="363.79200000000003" y="43.648" type="line"/>
      <point x="248.328" y="81.296" type="line"/>
    </contour>
  </outline>
</glyph>
<glyph name="brokenbar" format="2">
  <advance width="454.192"/>
  <unicode hex="00A6"/>
  <outline>
    <contour>
      <point x="287.576" y="702.12" type="line"/>
      <point x="287.576" y="1470.0" type="line"/>
      <point x="166.61599999999999" y="1470.0" type="line"/>
      <point x="166.61599999999999" y="702.12" type="line"/>
    </contour>
    <contour>
      <point x="166.61599999999999" y="-530.0" type="line"/>
      <point x="287.576" y="-530.0" type="line"/>
      <point x="287.576" y="322.12" type="line"/>
      <point x="166.61599999999999" y="322.12" type="line"/>
    </contour>
  </outline>
</glyph>
<glyph name="logicalnot" format="2">
  <advance width="1000.0"/>
  <unicode hex="00AC"/>
  <outline>
    <contour>
      <point x="117.968" y="667.44" type="line"/>
      <point x="117.968" y="544.56" type="line"/>
      <point x="870.848" y="544.56" type="line"/>
      <point x="870.848" y="667.44" type="line"/>
    </contour>
    <contour>
      <point x="870.848" y="622.44" type="line"/>
      <point x="747.968" y="622.44" type="line"/>
      <point x="747.968" y="204.56" type="line"/>
      <point x="870.848" y="204.56" type="line"/>
    </contour>
  </outline>
</glyph>
<glyph name="registered" format="2">
  <advance width="1074.632"/>
  <unicode hex="00AE"/>
  <outline>
    <contour>
      <point x="534.816" y="1366.48" type="curve" smooth="yes"/>
      <point x="284.816" y="1366.48"/>
      <point x="99.336" y="1186.888"/>
      <point x="99.336" y="934.0" type="curve" smooth="yes"/>
      <point x="99.336" y="682.112"/>
      <point x="284.816" y="499.52"/>
      <point x="534.816" y="499.52" type="curve" smooth="yes"/>
      <point x="786.816" y="499.52"/>
      <point x="975.296" y="682.112"/>
      <point x="975.296" y="934.0" type="curve" smooth="yes"/>
      <point x="975.296" y="1186.888"/>
      <point x="786.816" y="1366.48"/>
    </contour>
    <contour>
      <point x="534.816" y="1285.464" type="curve" smooth="yes"/>
      <point x="736.632" y="1285.464"/>
      <point x="887.928" y="1142.408"/>
      <point x="887.928" y="934.0" type="curve" smooth="yes"/>
      <point x="887.928" y="727.592"/>
      <point x="736.632" y="581.536"/>
      <point x="534.816" y="581.536" type="curve" smooth="yes"/>
      <point x="335.0" y="581.536"/>
      <point x="186.704" y="727.592"/>
      <point x="186.704" y="934.0" type="curve" smooth="yes"/>
      <point x="186.704" y="1142.408"/>
      <point x="335.0" y="1285.464"/>
    </contour>
    <contour>
      <point x="443.384" y="966.648" type="line"/>
      <point x="442.92" y="907.168" type="line"/>
      <point x="534.576" y="907.168" type="line" smooth="yes"/>
      <point x="573.76" y="907.168"/>
      <point x="585.816" y="893.984"/>
      <point x="594.096" y="859.184" type="curve" smooth="yes"/>
      <point x="607.136" y="800.032" type="line" smooth="yes"/>
      <point x="621.304" y="718.648"/>
      <point x="644.896" y="704.872"/>
      <point x="777.944" y="717.648" type="curve"/>
      <point x="777.944" y="751.704" type="line"/>
      <point x="753.592" y="751.704"/>
      <point x="744.536" y="757.704"/>
      <point x="735.016" y="797.816" type="curve" smooth="yes"/>
      <point x="716.808" y="869.968" type="line" smooth="yes"/>
      <point x="705.344" y="925.576"/>
      <point x="675.624" y="947.296"/>
      <point x="606.44" y="949.24" type="curve"/>
      <point x="606.44" y="945.776" type="line"/>
      <point x="699.256" y="949.592"/>
      <point x="743.44" y="1001.296"/>
      <point x="743.44" y="1058.128" type="curve" smooth="yes"/>
      <point x="743.44" y="1120.296"/>
      <point x="702.68" y="1166.0"/>
      <point x="585.976" y="1166.0" type="curve" smooth="yes"/>
      <point x="438.808" y="1166.0" type="line"/>
      <point x="452.23199999999997" y="1109.168" type="line"/>
      <point x="544.976" y="1109.168" type="line" smooth="yes"/>
      <point x="597.52" y="1109.168"/>
      <point x="619.28" y="1087.944"/>
      <point x="619.28" y="1041.296" type="curve" smooth="yes"/>
      <point x="619.28" y="991.24"/>
      <point x="595.056" y="966.648"/>
      <point x="550.704" y="966.648" type="curve" smooth="yes"/>
    </contour>
    <contour>
      <point x="372.784" y="1115.408" type="line"/>
      <point x="372.784" y="769.592" type="line"/>
      <point x="324.616" y="750.296" type="line"/>
      <point x="324.616" y="717.0" type="line"/>
      <point x="545.184" y="717.0" type="line"/>
      <point x="545.184" y="750.296" type="line"/>
      <point x="498.368" y="769.592" type="line"/>
      <point x="498.368" y="1166.0" type="line"/>
      <point x="324.616" y="1166.0" type="line"/>
      <point x="324.616" y="1134.704" type="line"/>
    </contour>
  </outline>
</glyph>
<glyph name="AE" format="2">
  <advance width="2045.6"/>
  <unicode hex="00C6"/>
  <anchor x="1099.2" y="1340.0" name="UCtop"/>
  <anchor x="1014.96" y="0.0" name="bottom"/>
  <outline>
    <contour>
      <point x="438.872" y="444.624" type="line"/>
      <point x="1043.288" y="444.624" type="line"/>
      <point x="1043.288" y="563.488" type="line"/>
      <point x="438.872" y="563.488" type="line"/>
    </contour>
    <contour>
      <point x="868.944" y="1340.0" type="line"/>
      <point x="125.112" y="102.664" type="line"/>
      <point x="-34.368" y="43.536" type="line"/>
      <point x="-34.368" y="0.0" type="line"/>
      <point x="419.848" y="0.0" type="line"/>
      <point x="419.848" y="43.536" type="line"/>
      <point x="264.624" y="102.664" type="line"/>
      <point x="966.608" y="1261.768" type="line"/>
      <point x="966.608" y="1340.0" type="line"/>
    </contour>
    <contour>
      <point x="632.176" y="1296.464" type="line"/>
      <point x="848.888" y="1205.768" type="line"/>
      <point x="933.6" y="1340.0" type="line"/>
      <point x="632.176" y="1340.0" type="line"/>
    </contour>
    <contour>
      <point x="1682.232" y="965.0" type="line"/>
      <point x="1584.256" y="965.0" type="line"/>
      <point x="1562.256" y="764.256" type="line"/>
      <point x="1088.272" y="764.256" type="line"/>
      <point x="1088.272" y="641.744" type="line"/>
      <point x="1562.256" y="641.744" type="line"/>
      <point x="1584.256" y="441.0" type="line"/>
      <point x="1682.232" y="441.0" type="line"/>
      <point x="1682.232" y="703.0" type="line"/>
    </contour>
    <contour>
      <point x="1957.2640000000001" y="950.984" type="line"/>
      <point x="1876.712" y="1406.496" type="line"/>
      <point x="1846.456" y="1406.496" type="line"/>
      <point x="1723.44" y="1340.0" type="line"/>
      <point x="1088.272" y="1340.0" type="line"/>
      <point x="1088.272" y="1217.488" type="line"/>
      <point x="1765.272" y="1217.488" type="line"/>
      <point x="1683.056" y="1263.76" type="line"/>
      <point x="1899.896" y="937.448" type="line"/>
    </contour>
    <contour>
      <point x="1717.256" y="77.072" type="line"/>
      <point x="1779.752" y="122.512" type="line"/>
      <point x="1088.272" y="122.512" type="line"/>
      <point x="1088.272" y="0.0" type="line"/>
      <point x="1747.272" y="0.0" type="line"/>
      <point x="1881.712" y="-73.256" type="line"/>
      <point x="1915.208" y="-73.256" type="line"/>
      <point x="1999.52" y="417.952" type="line"/>
      <point x="1948.8" y="430.896" type="line"/>
    </contour>
    <contour>
      <point x="793.808" y="0.0" type="line"/>
      <point x="1247.888" y="0.0" type="line"/>
      <point x="1247.888" y="1340.0" type="line"/>
      <point x="938.848" y="1340.0" type="line"/>
      <point x="938.848" y="102.016" type="line"/>
      <point x="793.808" y="43.536" type="line"/>
    </contour>
  </outline>
</glyph>
<glyph name="Iogonek" format="2">
  <advance width="735.424"/>
  <unicode hex="012E"/>
  <outline>
    <contour>
      <point x="667.272" y="43.536" type="line"/>
      <point x="522.232" y="102.016" type="line"/>
      <point x="522.232" y="1237.984" type="line"/>
      <point x="667.272" y="1296.464" type="line"/>
      <point x="667.272" y="1340.0" type="line"/>
      <point x="68.152" y="1340.0" type="line"/>
      <point x="68.152" y="1296.464" type="line"/>
      <point x="213.192" y="1237.984" type="line"/>
      <point x="213.192" y="102.016" type="line"/>
      <point x="68.152" y="43.536" type="line"/>
      <point x="68.152" y="0.0" type="line"/>
      <point x="667.272" y="0.0" type="line"/>
    </contour>
    <contour>
      <point x="383.128" y="-68.848" type="curve" smooth="yes"/>
      <point x="446.20799999999997" y="46.0" type="line"/>
      <point x="373.12" y="46.0" type="line"/>
      <point x="284.04" y="-76.696" type="line" smooth="yes"/>
      <point x="172.752" y="-223.632"/>
      <point x="150.568" y="-288.576"/>
      <point x="150.568" y="-361.0" type="curve" smooth="yes"/>
      <point x="150.568" y="-458.576"/>
      <point x="214.496" y="-530.0"/>
      <point x="333.528" y="-530.0" type="curve" smooth="yes"/>
      <point x="428.36" y="-530.0"/>
      <point x="501.36" y="-490.48"/>
      <point x="588.376" y="-381.664" type="curve"/>
      <point x="550.952" y="-336.168" type="line"/>
      <point x="496.56" y="-384.488"/>
      <point x="456.8" y="-402.784"/>
      <point x="413.8" y="-402.784" type="curve" smooth="yes"/>
      <point x="344.32" y="-402.784"/>
      <point x="299.968" y="-360.896"/>
      <point x="299.968" y="-289.656" type="curve" smooth="yes"/>
      <point x="299.968" y="-239.00799999999998"/>
      <point x="315.56" y="-184.89600000000002"/>
    </contour>
  </outline>
</glyph>
<glyph name="Tbar" format="2">
  <advance width="1385.592"/>
  <unicode hex="0166"/>
  <outline>
    <contour>
      <point x="274.168" y="613.36" type="line"/>
      <point x="1101.704" y="613.36" type="line"/>
      <point x="1101.704" y="730.688" type="line"/>
      <point x="274.168" y="730.688" type="line"/>
    </contour>
    <contour>
      <point x="533.4159999999999" y="1274.464" type="line"/>
      <point x="533.4159999999999" y="102.016" type="line"/>
      <point x="388.376" y="43.536" type="line"/>
      <point x="388.376" y="0.0" type="line"/>
      <point x="987.496" y="0.0" type="line"/>
      <point x="987.496" y="43.536" type="line"/>
      <point x="842.456" y="102.016" type="line"/>
      <point x="842.456" y="1274.464" type="line"/>
    </contour>
    <contour>
      <point x="1204.936" y="1217.488" type="line"/>
      <point x="1114.88" y="1251.392" type="line"/>
      <point x="1289.408" y="936.88" type="line"/>
      <point x="1352.256" y="949.768" type="line"/>
      <point x="1309.664" y="1412.536" type="line"/>
      <point x="1273.52" y="1412.536" type="line"/>
      <point x="1102.712" y="1316.224" type="line"/>
      <point x="1181.936" y="1340.0" type="line"/>
      <point x="168.016" y="1340.0" type="line"/>
      <point x="283.528" y="1316.224" type="line"/>
      <point x="112.72" y="1412.536" type="line"/>
      <point x="76.576" y="1412.536" type="line"/>
      <point x="33.984" y="949.768" type="line"/>
      <point x="96.832" y="936.88" type="line"/>
      <point x="271.36" y="1251.392" type="line"/>
      <point x="145.016" y="1217.488" type="line"/>
    </contour>
  </outline>
</glyph>
<glyph name="Uogonek" format="2">
  <advance width="1542.064"/>
  <unicode hex="0172"/>
  <outline>
    <contour>
      <point x="1241.136" y="533.064" type="line" smooth="yes"/>
      <point x="1241.136" y="293.84000000000003"/>
      <point x="1101.672" y="168.096"/>
      <point x="860.704" y="168.096" type="curve" smooth="yes"/>
      <point x="614.272" y="168.096"/>
      <point x="491.23199999999997" y="294.192"/>
      <point x="491.23199999999997" y="545.016" type="curve" smooth="yes"/>
      <point x="491.23199999999997" y="1237.984" type="line"/>
      <point x="636.272" y="1296.464" type="line"/>
      <point x="636.272" y="1340.0" type="line"/>
      <point x="37.152" y="1340.0" type="line"/>
      <point x="37.152" y="1296.464" type="line"/>
      <point x="182.192" y="1237.984" type="line"/>
      <point x="182.192" y="545.592" type="line" smooth="yes"/>
      <point x="182.192" y="163.28"/>
      <point x="392.744" y="-26.48"/>
      <point x="790.4" y="-26.48" type="curve" smooth="yes"/>
      <point x="1158.152" y="-26.48"/>
      <point x="1359.1680000000001" y="168.112"/>
      <point x="1359.1680000000001" y="540.104" type="curve" smooth="yes"/>
      <point x="1359.1680000000001" y="1237.984" type="line"/>
      <point x="1504.208" y="1296.464" type="line"/>
      <point x="1504.208" y="1340.0" type="line"/>
      <point x="1085.08" y="1340.0" type="line"/>
      <point x="1085.08" y="1296.464" type="line"/>
      <point x="1241.136" y="1237.984" type="line"/>
    </contour>
    <contour>
      <point x="866.52" y="-68.848" type="curve" smooth="yes"/>
      <point x="929.6" y="46.0" type="line"/>
      <point x="856.512" y="46.0" type="line"/>
      <point x="767.432" y="-76.696" type="line" smooth="yes"/>
      <point x="656.144" y="-223.632"/>
      <point x="633.96" y="-288.576"/>
      <point x="633.96" y="-361.0" type="curve" smooth="yes"/>
      <point x="633.96" y="-458.576"/>
      <point x="697.888" y="-530.0"/>
      <point x="816.92" y="-530.0" type="curve" smooth="yes"/>
      <point x="911.752" y="-530.0"/>
      <point x="984.752" y="-490.48"/>
      <point x="1071.768" y="-381.664" type="curve"/>
      <point x="1034.344" y="-336.168" type="line"/>
      <point x="979.952" y="-384.488"/>
      <point x="940.192" y="-402.784"/>
      <point x="897.192" y="-402.784" type="curve" smooth="yes"/>
      <point x="827.712" y="-402.784"/>
      <point x="783.36" y="-360.896"/>
      <point x="783.36" y="-289.656" type="curve" smooth="yes"/>
      <point x="783.36" y="-239.00799999999998"/>
      <point x="798.952" y="-184.89600000000002"/>
    </contour>
  </outline>
</glyph>
<glyph name="Ohorn" format="2">
  <advance width="1564.88"/>
  <unicode hex="01A0"/>
  <anchor x="779.496" y="1340.0" name="UCtop"/>
  <anchor x="779.496" y="0.0" name="bottom"/>
  <outline>
    <contour>
      <point x="789.144" y="105.696" type="curve" smooth="yes"/>
      <point x="559.648" y="105.696"/>
      <point x="397.6" y="315.904"/>
      <point x="397.6" y="727.864" type="curve" smooth="yes"/>
      <point x="397.6" y="1067.44"/>
      <point x="551.848" y="1234.304"/>
      <point x="769.552" y="1234.304" type="curve" smooth="yes"/>
      <point x="999.048" y="1234.304"/>
      <point x="1161.096" y="1024.096"/>
      <point x="1161.096" y="612.136" type="curve" smooth="yes"/>
      <point x="1161.096" y="272.56"/>
      <point x="1006.848" y="105.696"/>
    </contour>
    <contour>
      <point x="792.752" y="1366.48" type="curve" smooth="yes"/>
      <point x="371.704" y="1366.48"/>
      <point x="74.56" y="1082.072"/>
      <point x="74.56" y="668.0" type="curve" smooth="yes"/>
      <point x="74.56" y="250.392"/>
      <point x="352.616" y="-26.48"/>
      <point x="765.944" y="-26.48" type="curve" smooth="yes"/>
      <point x="1186.992" y="-26.48"/>
      <point x="1484.136" y="257.928"/>
      <point x="1484.136" y="672.0" type="curve" smooth="yes"/>
      <point x="1484.136" y="924.504"/>
      <point x="1379.52" y="1137.968"/>
      <point x="1191.0720000000001" y="1255.208" type="curve"/>
      <point x="1191.0720000000001" y="1239.152" type="line"/>
      <point x="1390.24" y="1229.392"/>
      <point x="1474.648" y="1329.536"/>
      <point x="1474.648" y="1472.96" type="curve" smooth="yes"/>
      <point x="1474.648" y="1556.864"/>
      <point x="1428.224" y="1610.288"/>
      <point x="1351.968" y="1610.288" type="curve" smooth="yes"/>
      <point x="1294.712" y="1610.288"/>
      <point x="1243.92" y="1575.456"/>
      <point x="1243.272" y="1532.272" type="curve" smooth="yes"/>
      <point x="1242.624" y="1508.584"/>
      <point x="1275.048" y="1463.072"/>
      <point x="1275.048" y="1404.296" type="curve" smooth="yes"/>
      <point x="1275.048" y="1358.056"/>
      <point x="1243.584" y="1332.944"/>
      <point x="1151.024" y="1332.944" type="curve" smooth="yes"/>
      <point x="1034.32" y="1332.944"/>
      <point x="930.208" y="1366.48"/>
    </contour>
  </outline>
</glyph>
<glyph name="uni0312" format="2">
  <unicode hex="0312"/>
  <anchor x="0.0" y="864.96" name="_top"/>
  <anchor x="-2.0" y="1340.0" name="top"/>
  <outline>
    <contour>
      <point x="143.864" y="1134.792" type="curve" smooth="yes"/>
      <point x="143.864" y="1157.3143529411766"/>
      <point x="13.032" y="1173.368"/>
      <point x="13.032" y="1231.68" type="curve" smooth="yes"/>
      <point x="13.032" y="1269.16"/>
      <point x="44.696" y="1296.976"/>
      <point x="141.776" y="1317.496" type="curve"/>
      <point x="129.424" y="1383.328" type="line"/>
      <point x="-73.352" y="1355.752"/>
      <point x="-148.608" y="1257.328"/>
      <point x="-148.608" y="1151.2" type="curve" smooth="yes"/>
      <point x="-148.608" y="1052.944"/>
      <point x="-86.24" y="998.352"/>
      <point x="-3.76" y="998.352" type="curve" smooth="yes"/>
      <point x="88.16" y="998.352"/>
      <point x="143.864" y="1054.368"/>
    </contour>
  </outline>
</glyph>
<glyph name="dotbelowcomb" format="2">
  <unicode hex="0323"/>
  <anchor x="0.0" y="0.0" name="_bottom"/>
  <anchor x="0.0" y="-530.0" name="bottom"/>
  <outline>
    <contour>
      <point x="0.0" y="-391.44" type="curve" smooth="yes"/>
      <point x="83.608" y="-391.44"/>
      <point x="141.328" y="-331.368"/>
      <point x="141.328" y="-252.408" type="curve" smooth="yes"/>
      <point x="141.328" y="-173.448"/>
      <point x="83.608" y="-112.08"/>
      <point x="0.0" y="-112.08" type="curve" smooth="yes"/>
      <point x="-83.608" y="-112.08"/>
      <point x="-141.328" y="-173.448"/>
      <point x="-141.328" y="-252.408" type="curve" smooth="yes"/>
      <point x="-141.328" y="-331.368"/>
      <point x="-83.608" y="-391.44"/>
    </contour>
  </outline>
</glyph>
<glyph name="uni032E" format="2">
  <unicode hex="032E"/>
  <anchor x="0.0" y="0.0" name="_bottom"/>
  <anchor x="0.0" y="-530.0" name="bottom"/>
  <outline>
    <contour>
      <point x="0.0" y="-271.968" type="curve" smooth="yes"/>
      <point x="-120.608" y="-271.968"/>
      <point x="-185.0" y="-215.096"/>
      <point x="-213.0" y="-89.0" type="curve"/>
      <point x="-297.976" y="-89.0" type="line"/>
      <point x="-252.512" y="-348.0"/>
      <point x="-171.44" y="-430.0"/>
      <point x="0.0" y="-430.0" type="curve" smooth="yes"/>
      <point x="171.44" y="-430.0"/>
      <point x="252.512" y="-348.0"/>
      <point x="297.976" y="-89.0" type="curve"/>
      <point x="213.0" y="-89.0" type="line"/>
      <point x="185.0" y="-215.096"/>
      <point x="120.608" y="-271.968"/>
    </contour>
  </outline>
</glyph>
<glyph name="uni0335" format="2">
  <unicode hex="0335"/>
  <anchor x="0.0" y="1078.0" name="_center"/>
  <outline>
    <contour>
      <point x="-363.392" y="1020.336" type="line"/>
      <point x="363.744" y="1020.336" type="line"/>
      <point x="363.744" y="1136.96" type="line"/>
      <point x="-363.392" y="1136.96" type="line"/>
    </contour>
  </outline>
</glyph>
<glyph name="emdash" format="2">
  <advance width="1320.416"/>
  <unicode hex="2014"/>
  <outline>
    <contour>
      <point x="85.208" y="496.96" type="line"/>
      <point x="85.208" y="388.0" type="line"/>
      <point x="1235.208" y="388.0" type="line"/>
      <point x="1235.208" y="496.96" type="line"/>
    </contour>
  </outline>
</glyph>
<glyph name="fraction" format="2">
  <advance width="160.0"/>
  <unicode hex="2044"/>
  <outline>
    <contour>
      <point x="-448.72" y="0.0" type="line"/>
      <point x="-328.816" y="0.0" type="line"/>
      <point x="606.72" y="1340.0" type="line"/>
      <point x="486.816" y="1340.0" type="line"/>
    </contour>
  </outline>
</glyph>
<glyph name="uni2074" format="2">
  <advance width="777.392"/>
  <unicode hex="2074"/>
  <outline>
    <contour>
      <point x="352.296" y="1226.504" type="line"/>
      <point x="352.296" y="662.072" type="line"/>
      <point x="237.056" y="629.48" type="line"/>
      <point x="237.056" y="592.0" type="line"/>
      <point x="664.872" y="592.0" type="line"/>
      <point x="664.872" y="629.48" type="line"/>
      <point x="557.28" y="662.072" type="line"/>
      <point x="557.28" y="1341.76" type="line"/>
      <point x="384.224" y="1341.76" type="line"/>
      <point x="16.631999999999998" y="878.848" type="line"/>
      <point x="16.631999999999998" y="796.576" type="line"/>
      <point x="717.888" y="796.576" type="line"/>
      <point x="754.648" y="955.496" type="line"/>
      <point x="627.072" y="935.976" type="line"/>
      <point x="89.112" y="935.976" type="line"/>
      <point x="104.888" y="884.888" type="line"/>
      <point x="401.0" y="1250.688" type="line"/>
    </contour>
  </outline>
</glyph>
<glyph name="lessequal" format="2">
  <advance width="1000.0"/>
  <unicode hex="2264"/>
  <outline>
    <contour>
      <point x="47.648" y="122.88" type="line"/>
      <point x="47.648" y="0.0" type="line"/>
      <point x="947.648" y="0.0" type="line"/>
      <point x="947.648" y="122.88" type="line"/>
    </contour>
    <contour>
      <point x="47.648" y="494.392" type="line"/>
      <point x="947.648" y="199.704" type="line"/>
      <point x="947.648" y="330.176" type="line"/>
      <point x="140.648" y="581.568" type="line"/>
      <point x="140.648" y="511.432" type="line"/>
      <point x="947.648" y="762.824" type="line"/>
      <point x="947.648" y="893.296" type="line"/>
      <point x="47.648" y="598.608" type="line"/>
    </contour>
  </outline>
</glyph>
<glyph name="gravecomb.case" format="2">
  <anchor x="0.0" y="1340.0" name="_UCtop"/>
  <anchor x="0.0" y="1716.0" name="UCtop"/>
  <outline>
    <contour>
      <point x="45.072" y="1476.0" type="line"/>
      <point x="-62.816" y="1716.0" type="line"/>
      <point x="-348.32" y="1716.0" type="line"/>
      <point x="-348.32" y="1681.8" type="line"/>
      <point x="-52.456" y="1476.0" type="line"/>
    </contour>
  </outline>
</glyph>
<glyph name="tildecomb.case" format="2">
  <anchor x="0.0" y="1340.0" name="_UCtop"/>
  <anchor x="0.0" y="1677.0" name="UCtop"/>
  <outline>
    <contour>
      <point x="303.048" y="1716.0" type="curve"/>
      <point x="207.944" y="1716.0" type="line"/>
      <point x="184.832" y="1641.736"/>
      <point x="162.184" y="1627.328"/>
      <point x="120.52" y="1627.328" type="curve" smooth="yes"/>
      <point x="52.391999999999996" y="1627.328"/>
      <point x="-17.352" y="1724.0"/>
      <point x="-117.536" y="1724.0" type="curve" smooth="yes"/>
      <point x="-209.72" y="1724.0"/>
      <point x="-257.568" y="1679.296"/>
      <point x="-303.048" y="1476.0" type="curve"/>
      <point x="-207.944" y="1476.0" type="line"/>
      <point x="-184.832" y="1550.264"/>
      <point x="-162.184" y="1564.672"/>
      <point x="-120.52" y="1564.672" type="curve" smooth="yes"/>
      <point x="-52.391999999999996" y="1564.672"/>
      <point x="17.352" y="1468.0"/>
      <point x="117.536" y="1468.0" type="curve" smooth="yes"/>
      <point x="209.72" y="1468.0"/>
      <point x="257.568" y="1512.704"/>
    </contour>
  </outline>
</glyph>
<glyph name="uni0302_tildecomb.case" format="2">
  <anchor x="0.0" y="1340.0" name="_UCtop"/>
  <outline>
    <contour>
      <point x="43.104" y="1541.96" type="line"/>
      <point x="-44.4" y="1541.96" type="line"/>
      <point x="178.61599999999999" y="1430.0" type="line"/>
      <point x="287.016" y="1430.0" type="line"/>
      <point x="88.664" y="1626.0" type="line"/>
      <point x="-88.664" y="1626.0" type="line"/>
      <point x="-287.016" y="1430.0" type="line"/>
      <point x="-178.61599999999999" y="1430.0" type="line"/>
    </contour>
    <contour>
      <point x="-193.296" y="1670.0" type="line"/>
      <point x="-173.536" y="1711.52"/>
      <point x="-152.888" y="1725.872"/>
      <point x="-108.648" y="1725.872" type="curve" smooth="yes"/>
      <point x="-53.648" y="1725.872"/>
      <point x="21.887999999999998" y="1666.056"/>
      <point x="99.44" y="1666.056" type="curve" smooth="yes"/>
      <point x="177.848" y="1666.056"/>
      <point x="222.864" y="1709.632"/>
      <point x="270.736" y="1846.0" type="curve"/>
      <point x="193.296" y="1846.0" type="line"/>
      <point x="173.536" y="1804.48"/>
      <point x="152.888" y="1789.48"/>
      <point x="108.648" y="1789.48" type="curve" smooth="yes"/>
      <point x="53.648" y="1789.48"/>
      <point x="-23.296" y="1849.944"/>
      <point x="-99.44" y="1849.944" type="curve" smooth="yes"/>
      <point x="-177.848" y="1849.944"/>
      <point x="-222.864" y="1805.72"/>
      <point x="-270.736" y="1670.0" type="curve"/>
    </contour>
  </outline>
</glyph>
<glyph name="uni0306_acutecomb" format="2">
  <anchor x="0.0" y="864.96" name="_top"/>
  <outline>
    <contour>
      <point x="-41.944" y="1189.0" type="line"/>
      <point x="30.312" y="1189.0" type="line"/>
      <point x="288.216" y="1447.576" type="line"/>
      <point x="288.216" y="1476.0" type="line"/>
      <point x="58.072" y="1476.0" type="line"/>
    </contour>
    <contour>
      <point x="0.0" y="1100.904" type="curve" smooth="yes"/>
      <point x="-114.368" y="1100.904"/>
      <point x="-168.296" y="1126.664"/>
      <point x="-196.592" y="1208.592" type="curve"/>
      <point x="-270.2" y="1208.592" type="line"/>
      <point x="-220.96" y="1001.592"/>
      <point x="-143.648" y="957.0"/>
      <point x="0.0" y="957.0" type="curve" smooth="yes"/>
      <point x="143.648" y="957.0"/>
      <point x="220.96" y="1001.592"/>
      <point x="270.2" y="1208.592" type="curve"/>
      <point x="196.592" y="1208.592" type="line"/>
      <point x="168.296" y="1127.904"/>
      <point x="114.368" y="1100.904"/>
    </contour>
  </outline>
</glyph>
<glyph name="uni0306_hookabovecomb.case" format="2">
  <anchor x="0.0" y="1340.0" name="_UCtop"/>
  <outline>
    <contour>
      <point x="0.0" y="1550.184" type="curve" smooth="yes"/>
      <point x="-117.536" y="1550.184"/>
      <point x="-170.408" y="1572.704"/>
      <point x="-196.592" y="1635.0" type="curve"/>
      <point x="-270.032" y="1635.0" type="line"/>
      <point x="-225.368" y="1475.504"/>
      <point x="-142.944" y="1428.0"/>
      <point x="0.0" y="1428.0" type="curve" smooth="yes"/>
      <point x="142.944" y="1428.0"/>
      <point x="225.368" y="1475.504"/>
      <point x="270.032" y="1635.0" type="curve"/>
      <point x="196.592" y="1635.0" type="line"/>
      <point x="170.408" y="1574.0"/>
      <point x="117.536" y="1550.184"/>
    </contour>
    <contour>
      <point x="-50.872" y="1658.552" type="curve"/>
      <point x="-42.688" y="1595.0" type="line"/>
      <point x="134.496" y="1604.776"/>
      <point x="189.68" y="1656.552"/>
      <point x="189.68" y="1741.424" type="curve" smooth="yes"/>
      <point x="189.68" y="1811.608"/>
      <point x="133.552" y="1869.128"/>
      <point x="-84.184" y="1875.352" type="curve"/>
      <point x="-101.424" y="1750.928" type="line"/>
      <point x="45.648" y="1745.0"/>
      <point x="69.832" y="1733.128"/>
      <point x="69.832" y="1702.48" type="curve" smooth="yes"/>
      <point x="69.832" y="1677.848"/>
      <point x="51.312" y="1666.2"/>
    </contour>
  </outline>
</glyph>
<glyph name="uni0312.case" format="2">
  <anchor x="0.0" y="1340.0" name="_UCtop"/>
  <anchor x="0.0" y="1716.0" name="UCtop"/>
  <outline>
    <contour>
      <point x="141.752" y="1568.832" type="curve" smooth="yes"/>
      <point x="141.752" y="1585.296"/>
      <point x="14.496000000000002" y="1596.776"/>
      <point x="14.496000000000002" y="1647.552" type="curve" smooth="yes"/>
      <point x="14.496000000000002" y="1682.736"/>
      <point x="47.328" y="1701.384"/>
      <point x="130.16" y="1703.736" type="curve"/>
      <point x="126.048" y="1768.696" type="line"/>
      <point x="-70.592" y="1767.176"/>
      <point x="-140.864" y="1676.752"/>
      <point x="-140.864" y="1585.368" type="curve" smooth="yes"/>
      <point x="-140.864" y="1497.184"/>
      <point x="-86.568" y="1446.28"/>
      <point x="1.3519999999999999" y="1446.28" type="curve" smooth="yes"/>
      <point x="99.792" y="1446.28"/>
      <point x="141.752" y="1500.52"/>
    </contour>
  </outline>
</glyph>
<glyph name="uni20B1.lf" format="2">
  <advance width="1419.984"/>
  <outline>
    <contour>
      <point x="299.112" y="1242.04" type="line"/>
      <point x="299.112" y="97.96000000000001" type="line"/>
      <point x="126.392" y="41.536" type="line"/>
      <point x="126.392" y="0.0" type="line"/>
      <point x="770.8720000000001" y="0.0" type="line"/>
      <point x="770.8720000000001" y="41.536" type="line"/>
      <point x="598.856" y="97.96000000000001" type="line"/>
      <point x="598.856" y="1340.0" type="line"/>
      <point x="126.392" y="1340.0" type="line"/>
      <point x="126.392" y="1298.464" type="line"/>
    </contour>
    <contour>
      <point x="1334.464" y="834.112" type="line"/>
      <point x="103.928" y="834.112" type="line"/>
      <point x="103.928" y="732.784" type="line"/>
      <point x="1334.464" y="732.784" type="line"/>
    </contour>
    <contour>
      <point x="1334.464" y="1117.44" type="line"/>
      <point x="103.928" y="1117.44" type="line"/>
      <point x="103.928" y="1016.112" type="line"/>
      <point x="1334.464" y="1016.112" type="line"/>
    </contour>
    <contour>
      <point x="386.648" y="1340.0" type="line"/>
      <point x="529.8720000000001" y="1229.024" type="line"/>
      <point x="658.448" y="1229.024" type="line" smooth="yes"/>
      <point x="835.56" y="1229.024"/>
      <point x="909.08" y="1145.6502857142857"/>
      <point x="909.08" y="926.76" type="curve" smooth="yes"/>
      <point x="909.08" y="706.0352621359224"/>
      <point x="828.816" y="624.144"/>
      <point x="707.736" y="624.144" type="curve" smooth="yes"/>
      <point x="529.8720000000001" y="624.144" type="line"/>
      <point x="386.648" y="513.816" type="line"/>
      <point x="742.744" y="513.816" type="line" smooth="yes"/>
      <point x="1059.184" y="513.816"/>
      <point x="1190.736" y="702.928"/>
      <point x="1190.736" y="931.984" type="curve" smooth="yes"/>
      <point x="1190.736" y="1157.28"/>
      <point x="1066.776" y="1340.0"/>
      <point x="742.744" y="1340.0" type="curve" smooth="yes"/>
    </contour>
  </outline>
</glyph>
<glyph name="uni20B9.lf" format="2">
  <advance width="1189.144"/>
  <outline>
    <contour>
      <point x="1117.752" y="1038.72" type="line"/>
      <point x="87.632" y="1038.72" type="line"/>
      <point x="87.632" y="937.392" type="line"/>
      <point x="1117.752" y="937.392" type="line"/>
    </contour>
    <contour>
      <point x="321.12" y="618.04" type="line" smooth="yes"/>
      <point x="406.664" y="618.04"/>
      <point x="451.512" y="597.608"/>
      <point x="489.072" y="467.76800000000003" type="curve" smooth="yes"/>
      <point x="569.4639999999999" y="172.72" type="line" smooth="yes"/>
      <point x="619.688" y="-10.664"/>
      <point x="662.352" y="-31.608"/>
      <point x="1068.904" y="0.0" type="curve"/>
      <point x="1068.904" y="67.664" type="line"/>
      <point x="967.704" y="66.664"/>
      <point x="930.112" y="84.384"/>
      <point x="896.368" y="203.48" type="curve" smooth="yes"/>
      <point x="829.88" y="436.728" type="line" smooth="yes"/>
      <point x="786.952" y="593.096"/>
      <point x="693.832" y="682.552"/>
      <point x="503.808" y="693.848" type="curve"/>
      <point x="484.368" y="682.96" type="line"/>
      <point x="781.152" y="700.52"/>
      <point x="897.592" y="822.432"/>
      <point x="897.592" y="993.928" type="curve" smooth="yes"/>
      <point x="897.592" y="1150.192"/>
      <point x="790.84" y="1253.784"/>
      <point x="478.656" y="1253.784" type="curve" smooth="yes"/>
      <point x="372.6" y="1253.784" type="line"/>
      <point x="372.6" y="1340.0" type="line"/>
      <point x="87.632" y="1340.0" type="line"/>
      <point x="87.632" y="1235.504" type="line"/>
      <point x="340.936" y="1235.504" type="line" smooth="yes"/>
      <point x="507.288" y="1235.504"/>
      <point x="584.664" y="1153.648"/>
      <point x="584.664" y="983.408" type="curve" smooth="yes"/>
      <point x="584.664" y="816.48"/>
      <point x="496.952" y="729.016"/>
      <point x="344.912" y="729.016" type="curve" smooth="yes"/>
      <point x="87.632" y="729.016" type="line"/>
      <point x="87.632" y="618.04" type="line"/>
    </contour>
    <contour>
      <point x="1117.752" y="1340.0" type="line"/>
      <point x="87.632" y="1340.0" type="line"/>
      <point x="87.632" y="1238.672" type="line"/>
      <point x="1117.752" y="1238.672" type="line"/>
    </contour>
  </outline>
</glyph>
<glyph name="uni20BC.lf" format="2">
  <advance width="1241.184"/>
  <outline>
    <contour>
      <point x="621.24" y="1036.264" type="curve" smooth="yes"/>
      <point x="813.608" y="1036.264"/>
      <point x="833.3248510801861" y="821.5191698701002"/>
      <point x="869.176" y="0.0" type="curve"/>
      <point x="1159.312" y="0.0" type="line"/>
      <point x="1060.464" y="877.312"/>
      <point x="891.16" y="1140.0"/>
      <point x="621.24" y="1140.0" type="curve" smooth="yes"/>
      <point x="351.32" y="1140.0"/>
      <point x="181.368" y="877.312"/>
      <point x="81.872" y="0.0" type="curve"/>
      <point x="372.00800000000004" y="0.0" type="line"/>
      <point x="407.85914891981383" y="821.5191698701002"/>
      <point x="428.224" y="1036.264"/>
    </contour>
    <contour>
      <point x="575.816" y="0.0" type="line"/>
      <point x="665.368" y="0.0" type="line"/>
      <point x="665.368" y="1340.0" type="line"/>
      <point x="575.816" y="1340.0" type="line"/>
    </contour>
  </outline>
</glyph>
<glyph name="zero.lf" format="2">
  <advance width="1298.896"/>
  <outline>
    <contour>
      <point x="658.28" y="87.624" type="curve" smooth="yes"/>
      <point x="503.5997452801306" y="87.624"/>
      <point x="397.952" y="269.84"/>
      <point x="397.952" y="711.664" type="curve" smooth="yes"/>
      <point x="397.952" y="1061.704"/>
      <point x="483.08936010400123" y="1252.376"/>
      <point x="640.616" y="1252.376" type="curve" smooth="yes"/>
      <point x="794.948324235794" y="1252.376"/>
      <point x="900.592" y="1070.16"/>
      <point x="900.592" y="628.336" type="curve" smooth="yes"/>
      <point x="900.592" y="278.296"/>
      <point x="815.4587605592986" y="87.624"/>
    </contour>
    <contour>
      <point x="649.448" y="1366.48" type="curve" smooth="yes"/>
      <point x="303.832" y="1366.48"/>
      <point x="84.208" y="1094.256"/>
      <point x="84.208" y="668.0" type="curve" smooth="yes"/>
      <point x="84.208" y="243.392"/>
      <point x="303.832" y="-26.48"/>
      <point x="649.448" y="-26.48" type="curve" smooth="yes"/>
      <point x="996.12" y="-26.48"/>
      <point x="1214.688" y="245.744"/>
      <point x="1214.688" y="672.0" type="curve" smooth="yes"/>
      <point x="1214.688" y="1096.608"/>
      <point x="996.12" y="1366.48"/>
    </contour>
  </outline>
</glyph>
